<?xml version="1.0" encoding="UTF-8"?>
<svg id="Capa_1" data-name="Capa 1" xmlns="http://www.w3.org/2000/svg" viewBox="0 0 1080 1080">
  <defs>
    <style>
      .cls-1 {
        fill: #fde00a;
      }

      .cls-2 {
        fill: #7b50de;
      }

      .cls-3 {
        fill: #f0f0f0;
      }

      .cls-4 {
        fill: #f56e03;
      }

      .cls-5 {
        fill: #ff6fcd;
      }

      .cls-6 {
        fill: #59c9f7;
      }
    </style>
  </defs>
  <rect class="cls-1" x="26.92" y="340.08" width="454.8" height="398.27"/>
  <rect class="cls-6" x="66.46" y="439.99" width="382.23" height="254.37"/>
  <g>
    <path class="cls-3" d="M593,543.74c-9.51,0-17.71-2.04-24.6-6.13-6.89-4.09-12.18-9.6-15.87-16.53s-5.53-14.67-5.53-23.2,1.84-16.38,5.53-23.27c3.69-6.89,8.98-12.38,15.87-16.47,6.89-4.09,15.09-6.13,24.6-6.13,6.4,0,12.18.96,17.34,2.87,5.15,1.91,9.67,4.6,13.54,8.07,3.87,3.47,7.04,7.51,9.53,12.13l-20,17.2c-.8-2.93-2.11-5.69-3.93-8.27-1.82-2.58-4.11-4.69-6.87-6.33-2.76-1.64-6.05-2.47-9.87-2.47-4.09,0-7.62.96-10.6,2.87-2.98,1.91-5.25,4.56-6.8,7.93-1.56,3.38-2.34,7.33-2.34,11.87s.78,8.38,2.34,11.8c1.55,3.42,3.82,6.09,6.8,8,2.98,1.91,6.51,2.87,10.6,2.87,3.82,0,7.11-.82,9.87-2.47,2.75-1.64,5.04-3.78,6.87-6.4,1.82-2.62,3.13-5.35,3.93-8.2l20,17.2c-2.49,4.62-5.67,8.67-9.53,12.13-3.87,3.47-8.38,6.16-13.54,8.07-5.16,1.91-10.93,2.87-17.34,2.87Z"/>
    <path class="cls-3" d="M670.87,544.01c-7.02,0-13.09-1.49-18.2-4.47-5.11-2.98-9.07-7.07-11.87-12.27-2.8-5.2-4.2-11.04-4.2-17.54s1.4-12.44,4.2-17.6c2.8-5.15,6.76-9.22,11.87-12.2,5.11-2.98,11.18-4.47,18.2-4.47,7.38,0,13.71,1.49,19,4.47,5.29,2.98,9.33,7.05,12.13,12.2,2.8,5.16,4.2,11.02,4.2,17.6s-1.4,12.33-4.2,17.54c-2.8,5.2-6.85,9.29-12.13,12.27-5.29,2.98-11.63,4.47-19,4.47ZM671.41,524.8c2.04,0,3.84-.47,5.4-1.4,1.55-.93,2.78-2.49,3.67-4.67.89-2.18,1.33-5.18,1.33-9s-.44-6.82-1.33-9c-.89-2.18-2.11-3.73-3.67-4.67-1.56-.93-3.36-1.4-5.4-1.4s-3.85.47-5.4,1.4c-1.56.93-2.78,2.49-3.67,4.67-.89,2.18-1.33,5.18-1.33,9s.44,6.82,1.33,9c.89,2.18,2.11,3.73,3.67,4.67,1.55.93,3.35,1.4,5.4,1.4Z"/>
    <path class="cls-3" d="M737.95,542.67h-24v-65.87h24v65.87ZM779.28,542.67h-24v-36.8c0-4-.53-7.04-1.6-9.13-1.07-2.09-3.42-3.13-7.07-3.13-2.31,0-4.09.36-5.33,1.07-1.24.71-2.11,2.02-2.6,3.93-.49,1.91-.73,4.65-.73,8.2l-.4-7.6c.44-4,1.44-7.82,3-11.47,1.55-3.64,3.87-6.6,6.94-8.87,3.07-2.27,7.09-3.4,12.07-3.4,6.14,0,10.96,1.82,14.47,5.47,3.51,3.65,5.27,8.85,5.27,15.6v46.14Z"/>
    <path class="cls-3" d="M811.29,544.01c-5.25,0-9.78-1.29-13.6-3.87-3.82-2.58-6.76-6.42-8.8-11.53-2.05-5.11-3.07-11.4-3.07-18.87s1-13.87,3-18.94c2-5.07,4.82-8.89,8.47-11.47,3.64-2.58,7.87-3.87,12.67-3.87,5.15,0,9.2,1.13,12.13,3.4,2.93,2.27,5.07,5.22,6.4,8.87,1.33,3.65,2.22,7.47,2.67,11.47l-.4,7.6c0-3.55-.44-6.29-1.33-8.2-.89-1.91-2.09-3.22-3.6-3.93-1.51-.71-3.16-1.07-4.93-1.07-3.65,0-6.33,1.47-8.07,4.4-1.73,2.93-2.6,6.85-2.6,11.73s.91,8.8,2.74,11.73c1.82,2.93,4.64,4.4,8.47,4.4,1.69,0,3.24-.35,4.67-1.07,1.42-.71,2.56-2.02,3.4-3.93.84-1.91,1.27-4.64,1.27-8.2l.4,7.6c-.45,4-1.22,7.8-2.34,11.4-1.11,3.6-3.02,6.56-5.73,8.87-2.71,2.31-6.65,3.47-11.8,3.47ZM854.76,542.67h-24v-89.34h24v89.34Z"/>
    <path class="cls-3" d="M897.03,544.01c-7.02,0-13.09-1.49-18.2-4.47-5.11-2.98-9.07-7.07-11.87-12.27-2.8-5.2-4.2-11.04-4.2-17.54s1.4-12.44,4.2-17.6c2.8-5.15,6.76-9.22,11.87-12.2,5.11-2.98,11.18-4.47,18.2-4.47,7.38,0,13.71,1.49,19,4.47,5.29,2.98,9.33,7.05,12.13,12.2,2.8,5.16,4.2,11.02,4.2,17.6s-1.4,12.33-4.2,17.54c-2.8,5.2-6.85,9.29-12.13,12.27-5.29,2.98-11.63,4.47-19,4.47ZM897.56,524.8c2.04,0,3.84-.47,5.4-1.4,1.55-.93,2.78-2.49,3.67-4.67.89-2.18,1.33-5.18,1.33-9s-.44-6.82-1.33-9c-.89-2.18-2.11-3.73-3.67-4.67-1.56-.93-3.36-1.4-5.4-1.4s-3.85.47-5.4,1.4c-1.56.93-2.78,2.49-3.67,4.67-.89,2.18-1.33,5.18-1.33,9s.44,6.82,1.33,9c.89,2.18,2.11,3.73,3.67,4.67,1.55.93,3.35,1.4,5.4,1.4Z"/>
    <path class="cls-3" d="M964.1,542.67h-24v-65.87h24v65.87ZM964.1,509.47l-.4-7.6c.36-3.02,1.02-6.07,2-9.14.98-3.07,2.33-5.91,4.07-8.53,1.73-2.62,3.93-4.73,6.6-6.33s5.82-2.4,9.47-2.4c5.78,0,9.84,1.65,12.2,4.93,2.35,3.29,3.53,7.69,3.53,13.2,0,4-.51,7.6-1.53,10.8-1.02,3.2-2.02,5.65-3,7.33h-22c1.24-1.42,2.4-3.27,3.47-5.53,1.07-2.27,1.6-4.38,1.6-6.33s-.42-3.38-1.27-4.53c-.84-1.15-2.25-1.73-4.2-1.73-1.78,0-3.49.58-5.13,1.73-1.65,1.16-2.96,2.91-3.93,5.27-.98,2.36-1.47,5.31-1.47,8.87Z"/>
  </g>
  <g>
    <path class="cls-3" d="M594.66,649.55c-9.83,0-18.31-2.11-25.43-6.34-7.12-4.23-12.59-9.92-16.4-17.09-3.82-7.17-5.72-15.16-5.72-23.98s1.91-16.93,5.72-24.05c3.81-7.12,9.28-12.8,16.4-17.02,7.12-4.23,15.6-6.34,25.43-6.34,6.62,0,12.59.99,17.92,2.96,5.33,1.98,9.99,4.76,13.99,8.34,4,3.58,7.28,7.77,9.85,12.54l-20.68,17.78c-.83-3.03-2.18-5.88-4.07-8.55-1.88-2.66-4.25-4.85-7.1-6.55-2.85-1.7-6.25-2.55-10.2-2.55-4.23,0-7.88.99-10.96,2.96-3.08,1.98-5.42,4.71-7.03,8.2-1.61,3.49-2.41,7.58-2.41,12.27s.8,8.66,2.41,12.2c1.61,3.54,3.95,6.3,7.03,8.27,3.08,1.98,6.73,2.96,10.96,2.96,3.95,0,7.35-.85,10.2-2.55,2.85-1.7,5.21-3.9,7.1-6.62,1.88-2.71,3.24-5.54,4.07-8.48l20.68,17.78c-2.57,4.78-5.86,8.96-9.85,12.54-4,3.58-8.66,6.36-13.99,8.34-5.33,1.98-11.3,2.96-17.92,2.96Z"/>
    <path class="cls-3" d="M675.16,649.82c-7.26,0-13.53-1.54-18.82-4.62-5.28-3.08-9.37-7.31-12.27-12.68-2.9-5.38-4.34-11.42-4.34-18.13s1.45-12.86,4.34-18.2c2.9-5.33,6.98-9.53,12.27-12.61,5.28-3.08,11.56-4.62,18.82-4.62,7.63,0,14.17,1.54,19.64,4.62,5.47,3.08,9.65,7.28,12.54,12.61,2.9,5.33,4.34,11.4,4.34,18.2s-1.45,12.75-4.34,18.13c-2.9,5.38-7.08,9.6-12.54,12.68-5.47,3.08-12.02,4.62-19.64,4.62ZM675.71,629.98c2.11,0,3.97-.48,5.58-1.45,1.61-.96,2.87-2.57,3.79-4.82.92-2.25,1.38-5.35,1.38-9.3s-.46-7.05-1.38-9.3c-.92-2.25-2.19-3.86-3.79-4.82-1.61-.96-3.47-1.45-5.58-1.45s-3.98.48-5.58,1.45c-1.61.97-2.87,2.57-3.79,4.82-.92,2.25-1.38,5.35-1.38,9.3s.46,7.05,1.38,9.3c.92,2.25,2.18,3.86,3.79,4.82,1.61.97,3.47,1.45,5.58,1.45Z"/>
    <path class="cls-3" d="M743.81,649.82c-5.42,0-10.11-1.33-14.06-4-3.95-2.66-6.99-6.64-9.1-11.92-2.11-5.28-3.17-11.79-3.17-19.51s1.03-14.34,3.1-19.57c2.07-5.24,4.98-9.19,8.75-11.85,3.77-2.66,8.13-4,13.09-4,5.33,0,9.51,1.17,12.54,3.51,3.03,2.34,5.24,5.4,6.62,9.17,1.38,3.77,2.3,7.72,2.76,11.85l-.41,7.86c0-3.67-.46-6.5-1.38-8.48-.92-1.97-2.16-3.33-3.72-4.07-1.56-.73-3.26-1.1-5.1-1.1-3.77,0-6.55,1.52-8.34,4.55-1.79,3.03-2.69,7.08-2.69,12.13s.94,9.1,2.83,12.13c1.88,3.03,4.8,4.55,8.75,4.55,1.75,0,3.35-.37,4.82-1.1,1.47-.73,2.64-2.09,3.52-4.07.87-1.97,1.31-4.8,1.31-8.48l.41,7.86c-.46,4.13-1.26,8.06-2.41,11.79-1.15,3.72-3.13,6.78-5.93,9.17-2.81,2.39-6.87,3.58-12.2,3.58ZM788.74,648.45h-24.81v-92.35h24.81v92.35Z"/>
    <path class="cls-3" d="M833.4,649.82c-7.81,0-14.43-1.52-19.85-4.55-5.42-3.03-9.54-7.21-12.34-12.54-2.8-5.33-4.2-11.44-4.2-18.33s1.4-13,4.2-18.33c2.8-5.33,6.75-9.51,11.86-12.54,5.1-3.03,11.09-4.55,17.99-4.55,7.81,0,14.15,1.52,19.02,4.55,4.87,3.03,8.48,6.99,10.82,11.85,2.34,4.87,3.52,10.06,3.52,15.58,0,1.65-.07,3.54-.21,5.65-.14,2.11-.3,3.58-.48,4.41h-49.49v-12.82h31.29l-3.31,1.52c0-3.95-.83-6.98-2.48-9.1-1.65-2.11-4.5-3.17-8.54-3.17-3.58,0-6.41,1.01-8.48,3.03-2.07,2.02-3.1,5.06-3.1,9.1v7.58c0,3.13.62,5.63,1.86,7.51,1.24,1.88,2.94,3.24,5.1,4.07,2.16.83,4.57,1.24,7.24,1.24,2.3,0,4.34-.25,6.13-.76,1.79-.5,3.4-1.33,4.82-2.48,1.42-1.15,2.55-2.69,3.38-4.62l15.03,14.34c-2.57,3.4-6.23,6.48-10.96,9.24-4.73,2.76-11.01,4.13-18.82,4.13Z"/>
    <path class="cls-3" d="M898.19,648.45h-24.81v-68.09h24.81v68.09ZM898.19,614.12l-.41-7.86c.37-3.12,1.06-6.27,2.07-9.44,1.01-3.17,2.41-6.11,4.2-8.82,1.79-2.71,4.07-4.89,6.82-6.55,2.76-1.65,6.02-2.48,9.79-2.48,5.97,0,10.18,1.7,12.61,5.1,2.43,3.4,3.65,7.95,3.65,13.65,0,4.14-.53,7.86-1.59,11.16-1.06,3.31-2.09,5.84-3.1,7.58h-22.74c1.29-1.47,2.48-3.38,3.58-5.72,1.1-2.34,1.65-4.53,1.65-6.55s-.44-3.49-1.31-4.69c-.87-1.19-2.32-1.79-4.34-1.79-1.84,0-3.61.6-5.31,1.79-1.7,1.2-3.06,3.01-4.07,5.44-1.01,2.44-1.52,5.49-1.52,9.17Z"/>
    <path class="cls-3" d="M974.83,649.82c-5.24,0-10.2-.51-14.89-1.52-4.69-1.01-8.85-2.3-12.48-3.86-3.63-1.56-6.59-3.22-8.89-4.96l9.24-17.92c2.66,1.75,5.63,3.4,8.89,4.96,3.26,1.56,6.52,2.8,9.79,3.72,3.26.92,6.27,1.38,9.03,1.38,1.84,0,3.22-.23,4.13-.69.92-.46,1.38-1.15,1.38-2.07,0-1.01-.67-1.84-2-2.48-1.33-.64-3.74-1.42-7.24-2.34l-9.37-2.48c-4.6-1.29-8.52-2.76-11.79-4.41-3.26-1.65-5.72-3.77-7.37-6.34-1.65-2.57-2.48-5.74-2.48-9.51,0-7.07,2.71-12.54,8.13-16.4,5.42-3.86,12.63-5.79,21.64-5.79,7.53,0,13.97,1.1,19.3,3.31,5.33,2.21,9.33,4.32,11.99,6.34l-8.41,17.64c-4.41-3.22-8.87-5.56-13.37-7.03-4.5-1.47-8.46-2.21-11.85-2.21-1.75,0-3.03.25-3.86.76-.83.51-1.24,1.17-1.24,2,0,1.01.69,1.88,2.07,2.62,1.38.74,4.27,1.75,8.69,3.03l7.03,2.07c7.35,2.11,12.89,4.73,16.61,7.86,3.72,3.13,5.58,7.44,5.58,12.96,0,4.23-1.15,7.95-3.45,11.16-2.3,3.22-5.54,5.72-9.72,7.51-4.18,1.79-9.21,2.69-15.09,2.69Z"/>
  </g>
  <path class="cls-2" d="M484.74,741.91l-458.37.14-.12-403.95,458.37-.14.12,403.95ZM35.19,733.22l440.72-.14-.12-386.31-440.72.14.12,386.31Z"/>
  <path class="cls-2" d="M452.24,702.49l-390.74.12-.08-264.76,390.74-.12.08,264.76ZM70.32,693.78l373.09-.12-.08-247.11-373.09.12.08,247.11Z"/>
  <path class="cls-5" d="M452.66,365.66l-52.4.02.02,50.05,52.4-.02-.02-50.05ZM438.64,396.6l-6,6.47-5.97-5.56-4.79,5.15-6.47-6,4.82-5.18-5.94-5.53,6.03-6.44,5.91,5.53,6.29-6.74,6.44,6.03-6.26,6.74,5.94,5.53Z"/>
  <polygon class="cls-4" points="266.5 381.82 266.5 405.23 61.41 405.28 61.41 381.89 266.5 381.82"/>
  <path d="M443.15,605.29c-9.04-2.25-16.71-4.47-22.86-6.38-7.73-2.4-12.35-4.09-13.48-4.51-12.28-4.54-22.13-9.41-30.16-13.61-24.88-13.02-58.74-33.37-109.98-73.16-66.71-51.79-85.07-72.51-134.28-118.32-16.09-16.16-24.12-24.07-29.84-26.22-12.84-4.54-14.67,17.38-14.71,29.45.14,18.67,5.85,63.34,50.99,108.08-12.79-5.28-28.91-16.65-38.38-24.12-9.01-6.67-13.31-10.9-19.22-9.42-.5.18-1.35.55-2.15,1.34-1.12,1.1-1.47,2.36-1.59,2.9-2.97,18.81,13.1,59.76,53.09,91.13-7.35-1.71-15.6-4.09-23.44-7.37-2.45-.96-8.32-3.42-11.65-1.78-4.61,2.01-3.2,7.3-2.46,9.8.07.33.14.56.19.75l.05.16.05.19c.7,2.2,16.16,48.56,70.92,58.64-8.6,3.76-9.61,5.78-10.17,6.87-4.63,12.37,20.65,27.62,50.28,28.56-8.02,20.19,28.09,20.33,43.15,19.76-7.09,25.24,32.7,25.66,51.34,20-.73,11.35,12.3,14.9,23.77,15.01,8.49.05,16.95-1.8,24.53-5.31,1.22,6.57,10.43,7.77,15.43,7.76,4.25.02,15.22-.66,25.38-7.53,5.94-3.81,12.84-8.28,18.15-12.33,9.26,0,18.65.06,28.17.21,2.98.05,5.93.11,8.89.17v-90.72Z"/>
</svg>